#!OML:ASF C:\ViconDB\ViconDB\414\Spring2016\041811\Spring2016.ASF
:FULLY-SPECIFIED
:DEGREES
228
root 10.0745 18.1569 -18.4459 -179.406 -1.44273 -181.755
lowerback 0.583033 -0.775894 -6.69392
upperback 0.341823 -1.08688 0.057498
thorax 0.15033 -0.565546 3.81663
lowerneck -8.26105 -5.00227 -8.84705
upperneck 19.439 -7.46381 16.3049
head 8.32185 -2.20228 6.37442
rclavicle -2.5345e-015 5.76476e-015
rhumerus -50.5665 -22.3648 -79.157
rradius 35.3804
rwrist 36.5649
rhand -34.6688 -14.3806
rfingers 7.12502
rthumb -7.82514 -44.2158
lclavicle -2.5345e-015 5.76476e-015
lhumerus -29.0888 -15.7686 89.8464
lradius 40.5381
lwrist -24.9228
lhand -31.2558 14.8181
lfingers 7.12502
lthumb -4.53013 44.7496
rfemur 242.17 65.2802 -96.2538
rtibia 25.0705
rfoot -89.06 -42.0962
rtoes 3.77691e-014
lfemur 7.02264 -5.56541 -24.679
ltibia 12.0794
lfoot -21.216 1.44036
ltoes -4.56211e-014
229
root 10.0767 18.1424 -18.6223 -179.412 -1.43368 -181.858
lowerback 0.561554 -0.806357 -6.66216
upperback 0.324091 -1.12776 -0.00890746
thorax 0.146734 -0.585849 3.72985
lowerneck -8.28016 -4.98796 -8.68753
upperneck 19.5031 -7.46196 16.3097
head 8.34096 -2.17959 6.35123
rclavicle 1.61419e-014 1.23246e-014
rhumerus -50.6862 -22.4324 -79.095
rradius 35.3659
rwrist 36.8194
rhand -34.4951 -14.1784
rfingers 7.12502
rthumb -7.65748 -44.0198
lclavicle 1.61419e-014 1.23246e-014
lhumerus -29.1285 -15.7456 89.6942
lradius 40.6897
lwrist -24.7977
lhand -31.3893 14.7189
lfingers 7.12502
lthumb -4.6591 44.6476
rfemur 243.009 64.5977 -95.5586
rtibia 25.0887
rfoot -90.0147 -41.6691
rtoes 3.38928e-014
lfemur 8.44511 -5.03882 -24.7293
ltibia 10.4875
lfoot -20.6942 1.17914
ltoes -9.14409e-015
230
root 10.0722 18.1074 -18.8005 -179.505 -1.37888 -182.25
lowerback 0.654503 -0.773475 -6.84245
upperback 0.341477 -1.09536 -0.0911239
thorax 0.110453 -0.570727 3.74729
lowerneck -8.31724 -5.00839 -8.60545
upperneck 19.5627 -7.4754 16.0922
head 8.35762 -2.19996 6.25785
rclavicle 1.67352e-014 1.15295e-014
rhumerus -50.7377 -22.3953 -78.9209
rradius 35.3123
rwrist 37.2133
rhand -34.3849 -14.1818
rfingers 7.12502
rthumb -7.5511 -44.027
lclavicle 1.67352e-014 1.15295e-014
lhumerus -29.1708 -15.654 89.7179
lradius 40.7263
lwrist -25.0051
lhand -31.4465 14.8827
lfingers 7.12502
lthumb -4.71429 44.8103
rfemur 243.56 64.1838 -95.3668
rtibia 25.2108
rfoot -90.8085 -41.4745
rtoes 1.23246e-014
lfemur 10.006 -4.69315 -25.1796
ltibia 8.97648
lfoot -20.3157 0.964861
ltoes -4.41799e-014
231
root 10.0752 18.0693 -18.9774 -179.547 -1.43638 -182.188
lowerback 0.769447 -0.806483 -6.64075
upperback 0.323436 -1.1446 -0.0230182
thorax 0.030471 -0.590689 3.7068
lowerneck -8.22312 -4.97645 -8.80348
upperneck 19.4317 -7.42866 16.293
head 8.30494 -2.1842 6.36627
rclavicle -1.28496e-014 2.06736e-014
rhumerus -50.7339 -22.1323 -78.9199
rradius 35.2749
rwrist 37.3008
rhand -34.3978 -14.4873
rfingers 7.12502
rthumb -7.5635 -44.3321
lclavicle -1.28496e-014 2.06736e-014
lhumerus -29.1354 -15.0406 89.6312
lradius 40.5744
lwrist -25.5879
lhand -31.2962 14.7856
lfingers 7.12502
lthumb -4.56916 44.7163
rfemur 244.363 63.9372 -94.4215
rtibia 25.2474
rfoot -91.1538 -41.3832
rtoes 3.598e-014
lfemur 11.2835 -4.47479 -25.0624
ltibia 7.8128
lfoot -20.0046 0.537636
ltoes -4.79816e-014
232
root 10.0773 18.0236 -19.1548 -179.709 -1.53177 -182.513
lowerback 1.02148 -0.824011 -6.77257
upperback 0.34811 -1.1921 -0.109752
thorax -0.0795204 -0.613201 3.69535
lowerneck -8.1348 -4.97806 -8.66938
upperneck 19.3071 -7.42132 16.106
head 8.23281 -2.20236 6.27004
rclavicle -3.26442e-015 9.0447e-015
rhumerus -50.7726 -22.2957 -78.7202
rradius 35.2036
rwrist 37.6538
rhand -33.8951 -14.6012
rfingers 7.12502
rthumb -7.07833 -44.4628
lclavicle -3.26442e-015 9.0447e-015
lhumerus -29.314 -14.8518 89.6245
lradius 40.6093
lwrist -25.8053
lhand -31.3143 14.79
lfingers 7.12502
lthumb -4.58661 44.7203
rfemur 245.087 64.0443 -93.9291
rtibia 25.3043
rfoot -91.6318 -41.2272
rtoes 4.27387e-015
lfemur 12.6519 -4.28105 -25.3706
ltibia 6.74453
lfoot -19.7132 0.127616
ltoes -9.04967e-014
233
root 10.0801 17.9905 -19.3344 -179.805 -1.68875 -182.099
lowerback 1.20123 -0.875274 -6.1136
upperback 0.348849 -1.25989 0.000483216
thorax -0.183574 -0.640745 3.44346
lowerneck -8.17889 -4.96927 -8.62575
upperneck 19.3717 -7.41008 16.0734
head 8.25809 -2.19089 6.25419
rclavicle 8.35827e-015 -7.85199e-015
rhumerus -50.6704 -22.0665 -78.7799
rradius 35.0942
rwrist 37.21
rhand -34.5239 -14.4434
rfingers 7.12502
rthumb -7.68523 -44.2838
lclavicle 8.35827e-015 -7.85199e-015
lhumerus -29.4821 -14.6099 89.6249
lradius 40.4648
lwrist -25.8088
lhand -31.3192 14.7497
lfingers 7.12502
lthumb -4.59138 44.68
rfemur 246.066 64.3326 -92.4191
rtibia 25.1926
rfoot -92.0496 -40.8559
rtoes 5.76476e-015
lfemur 13.4942 -4.17104 -24.8413
ltibia 6.4807
lfoot -19.6889 -0.288673
ltoes 1.09332e-014
234
root 10.083 17.9523 -19.5164 -179.902 -1.91218 -182.008
lowerback 1.32688 -0.947424 -5.84236
upperback 0.393229 -1.35737 0.070764
thorax -0.202687 -0.688902 3.36668
lowerneck -8.22551 -4.96409 -8.6182
upperneck 19.3457 -7.39267 15.9752
head 8.25136 -2.19566 6.21705
rclavicle 2.55438e-014 -5.86415e-015
rhumerus -50.6435 -22.1249 -78.6769
rradius 35.0081
rwrist 37.2213
rhand -34.7923 -14.2806
rfingers 7.12502
rthumb -7.94428 -44.1113
lclavicle 2.55438e-014 -5.86415e-015
lhumerus -29.6285 -14.1207 89.6705
lradius 40.2349
lwrist -25.8442
lhand -31.4582 14.795
lfingers 7.12502
lthumb -4.7256 44.7223
rfemur 247.248 64.7927 -91.0722
rtibia 25.0361
rfoot -92.7733 -40.4118
rtoes -9.98893e-015
lfemur 13.9446 -4.12058 -24.6792
ltibia 6.9564
lfoot -19.8977 -0.660103
ltoes -5.34731e-014
235
root 10.0888 17.9143 -19.6979 -179.937 -2.18471 -182.087
lowerback 1.49946 -1.05865 -5.72004
upperback 0.363935 -1.51604 0.0618761
thorax -0.31705 -0.764124 3.2947
lowerneck -8.32382 -4.91734 -8.40709
upperneck 19.4912 -7.32604 15.7502
head 8.292 -2.15916 6.11066
rclavicle -1.2921e-014 -7.45443e-015
rhumerus -50.7075 -22.1661 -78.5486
rradius 35.0538
rwrist 37.5576
rhand -34.862 -14.3434
rfingers 7.12502
rthumb -8.01155 -44.1716
lclavicle -1.2921e-014 -7.45443e-015
lhumerus -29.8865 -13.5452 89.6501
lradius 39.9236
lwrist -26.0218
lhand -31.4811 14.6685
lfingers 7.12502
lthumb -4.74767 44.5953
rfemur 233.276 63.3196 -106.665
rtibia 24.8986
rfoot -84.3764 -43.216
rtoes -5.9859e-014
lfemur 14.0913 -4.11754 -24.7175
ltibia 7.89729
lfoot -20.1859 -0.897857
ltoes -3.53837e-014
